<?xml version="1.0" encoding="utf-8"?>
<!-- Generator: Adobe Illustrator 22.1.0, SVG Export Plug-In . SVG Version: 6.00 Build 0)  -->
<svg version="1.1" id="Слой_13" xmlns="http://www.w3.org/2000/svg" xmlns:xlink="http://www.w3.org/1999/xlink" x="0px"
	 y="0px" viewBox="0 0 664.8 787.3" style="enable-background:new 0 0 664.8 787.3;" xml:space="preserve">
<style type="text/css">
	.st0{fill:#6D6D6D;}
</style>
<g>
	<path class="st0" d="M634,0.2H332.4H30.8H0V31v573.7c0,63.8,51.9,115.7,115.7,115.7h168.8c2.4,1.5,6.9,5.3,9.9,7.9
		c2.4,2.7,7.9,11.3,11.3,17.2l26.8,41.2l26.7-41.2c3.8-6.7,9.1-14.7,11.3-17.2c3-2.6,7.4-6.5,9.9-7.9h168.8
		c63.8,0,115.7-51.9,115.7-115.7V31V0.2H634z M634,380.8c-21.8-8.7-43.7-6.8-65.6,4.5c-2.5,1.3-5,2.3-7.6,3.5
		c-30,13.5-60.8,13.9-90.5,1c-32.4-14.1-63.4-13.9-95.4,0.1c-30.4,13.2-61.5,12-91.4-1.3c-27.1-12.1-54.7-13.7-81.3-2.4
		c-37.3,15.7-72.8,16.5-109.6-0.8c-19.3-9.1-40.2-15.6-61.8-5.1v-12.8c21.6-10.5,42.5-4,61.8,5.1c36.8,17.3,72.4,16.6,109.6,0.8
		c26.7-11.3,54.2-9.7,81.3,2.4c29.9,13.3,60.9,14.5,91.4,1.3c32-13.9,63-14.1,95.4-0.1c29.7,12.9,60.5,12.5,90.5-1
		c2.5-1.1,5.1-2.2,7.6-3.5c22-11.2,43.9-13.2,65.6-4.5V380.8z M30.8,406.3c21.6-10.5,42.5-4,61.8,5.1c36.8,17.3,72.4,16.6,109.6,0.8
		c26.7-11.3,54.2-9.7,81.3,2.4c29.9,13.3,60.9,14.5,91.4,1.3c32-13.9,63-14.1,95.4-0.1c29.7,12.9,60.5,12.5,90.5-1
		c2.5-1.1,5.1-2.2,7.6-3.5c22-11.2,43.9-13.2,65.6-4.5v12.8c-21.8-8.7-43.7-6.8-65.6,4.5c-2.5,1.3-5,2.3-7.6,3.5
		c-30,13.5-60.8,13.9-90.5,1c-32.4-14.1-63.4-13.9-95.4,0.1c-30.4,13.2-61.5,12-91.4-1.3c-27.1-12.1-54.7-13.7-81.3-2.4
		c-37.3,15.7-72.8,16.5-109.6-0.8c-19.3-9.1-40.2-15.6-61.8-5.1V406.3z M634,341.9c-21.8-8.7-43.7-6.8-65.6,4.5
		c-2.5,1.3-5,2.3-7.6,3.5c-30,13.5-60.8,13.9-90.5,1C438,336.8,407,337,375,351c-30.4,13.2-61.5,12-91.4-1.3
		c-27.1-12.1-54.7-13.7-81.3-2.4c-37.3,15.7-72.8,16.5-109.6-0.8c-19.3-9.1-40.2-15.6-61.8-5.1v-13.7c20.9-9.2,41.2-2.9,59.9,6
		c36.8,17.3,72.4,16.6,109.6,0.8c26.7-11.3,54.2-9.7,81.3,2.4c29.9,13.3,60.9,14.5,91.4,1.3c32-13.9,63-14.1,95.4-0.1
		c29.7,12.9,60.5,12.5,90.5-1c2.5-1.1,5.1-2.2,7.6-3.5c22.6-11.6,45.2-13.3,67.6-3.7V341.9z M30.8,445.2c21.6-10.5,42.5-4,61.8,5.1
		c36.8,17.3,72.4,16.6,109.6,0.8c26.7-11.3,54.2-9.7,81.3,2.4c29.9,13.3,60.9,14.5,91.4,1.3c32-13.9,63-14.1,95.4-0.1
		c29.7,12.9,60.5,12.5,90.5-1c2.5-1.1,5.1-2.2,7.6-3.5c22-11.2,43.9-13.2,65.6-4.5v12.8c-21.8-8.7-43.7-6.8-65.6,4.5
		c-2.5,1.3-5,2.3-7.6,3.5c-30,13.5-60.8,13.9-90.5,1c-32.4-14.1-63.4-13.9-95.4,0.1c-30.4,13.2-61.5,12-91.4-1.3
		c-27.1-12.1-54.7-13.7-81.3-2.4c-37.3,15.7-72.8,16.5-109.6-0.8c-19.3-9.1-40.2-15.6-61.8-5.1V445.2z M332.4,31H634v272.8
		c-22.4-9.6-44.9-7.9-67.6,3.7c-2.5,1.3-5,2.3-7.6,3.5c-30,13.5-60.8,13.9-90.5,1c-32.4-14.1-63.4-13.9-95.4,0.1
		c-30.4,13.2-61.5,12-91.4-1.3c-27.1-12.1-54.7-13.7-81.3-2.4c-37.3,15.7-72.8,16.5-109.6-0.8c-18.7-8.8-39-15.2-59.9-6V31H332.4z
		 M549.1,689.6c0,0-129.1,0-170.7,0c-10.3,0-18.9,7.4-28.7,16c-6.3,5.5-17.2,24.6-17.2,24.6s-10.9-19.1-17.2-24.6
		c-9.8-8.6-18.5-16-28.7-16c-41.6,0-170.7,0-170.7,0c-46.9,0-84.9-38-84.9-84.9V484.1c21.6-10.5,42.5-4,61.8,5.1
		c36.8,17.3,72.4,16.6,109.6,0.8c26.7-11.3,54.2-9.7,81.3,2.4c29.9,13.3,60.9,14.5,91.4,1.3c32-13.9,63-14.1,95.4-0.1
		c29.7,12.9,60.5,12.5,90.5-1c2.5-1.1,5.1-2.2,7.6-3.5c22-11.2,43.9-13.2,65.6-4.5v120C634,651.6,596,689.6,549.1,689.6z"/>
	<path class="st0" d="M81.5,155.4l30.4,13.8l-9.7,26c-0.6,1.5,0.9,2.9,2.4,2.4l26-9.7l13.8,30.4c0.7,1.5,2.9,1.5,3.6,0l13.8-30.4
		l26,9.7c1.5,0.6,2.9-0.9,2.4-2.4l-9.7-26l30.4-13.8c1.5-0.7,1.5-2.9,0-3.6L180.3,138l9.7-26c0.6-1.5-0.9-2.9-2.4-2.4l-26,9.7
		L147.9,89c-0.7-1.5-2.9-1.5-3.6,0l-13.8,30.4l-26-9.7c-1.5-0.6-2.9,0.9-2.4,2.4l9.7,26l-30.4,13.8
		C79.9,152.5,79.9,154.7,81.5,155.4z"/>
	<path class="st0" d="M453.7,155.4l30.4,13.8l-9.7,26c-0.6,1.5,0.9,2.9,2.4,2.4l26-9.7l13.8,30.4c0.7,1.5,2.9,1.5,3.6,0l13.8-30.4
		l26,9.7c1.5,0.6,2.9-0.9,2.4-2.4l-9.7-26l30.4-13.8c1.5-0.7,1.5-2.9,0-3.6L552.5,138l9.7-26c0.6-1.5-0.9-2.9-2.4-2.4l-26,9.7
		L520.1,89c-0.7-1.5-2.9-1.5-3.6,0l-13.8,30.4l-26-9.7c-1.5-0.6-2.9,0.9-2.4,2.4l9.7,26l-30.4,13.8
		C452.1,152.5,452.1,154.7,453.7,155.4z"/>
	<path class="st0" d="M267.6,155.4l30.4,13.8l-9.7,26c-0.6,1.5,0.9,2.9,2.4,2.4l26-9.7l13.8,30.4c0.7,1.5,2.9,1.5,3.6,0l13.8-30.4
		l26,9.7c1.5,0.6,2.9-0.9,2.4-2.4l-9.7-26l30.4-13.8c1.5-0.7,1.5-2.9,0-3.6L366.4,138l9.7-26c0.6-1.5-0.9-2.9-2.4-2.4l-26,9.7
		L334,89c-0.7-1.5-2.9-1.5-3.6,0l-13.8,30.4l-26-9.7c-1.5-0.6-2.9,0.9-2.4,2.4l9.7,26l-30.4,13.8C266,152.5,266,154.7,267.6,155.4z"
		/>
</g>
</svg>
