<?xml version="1.0" encoding="utf-8"?>
<!-- Generator: Adobe Illustrator 22.1.0, SVG Export Plug-In . SVG Version: 6.00 Build 0)  -->
<svg version="1.1" id="Слой_13" xmlns="http://www.w3.org/2000/svg" xmlns:xlink="http://www.w3.org/1999/xlink" x="0px"
	 y="0px" viewBox="0 0 664.8 787.3" style="enable-background:new 0 0 664.8 787.3;" xml:space="preserve">
<style type="text/css">
	.st0{fill:#6D6D6D;}
</style>
<g>
	<path class="st0" d="M76,652.3l243.4-243.4l14.3-13.3l14.4,13.5l6.3,6.3L589,649.9c15.9-14.4,25-34.7,25-56.3l0-0.2l0.2-5.6
		L376.6,350.2l0-2.1l1.2-298.3h-91l2.5,303l-1.5,1.5L48.9,590.8l-0.6,3.3C48.4,616.6,58.7,638,76,652.3z"/>
	<path class="st0" d="M634-0.2H332.4H30.8H0v30.8v573.7C0,668.1,40,718,115.7,720h168.8c2.4,1.5,6.9,5.3,9.9,7.9
		c2.4,2.7,7.9,11.3,11.3,17.2l26.7,41.6l26.7-41.6c3.8-6.7,9.1-14.7,11.3-17.2c3-2.6,7.4-6.5,9.9-7.9h168.8
		c68.9,0,115.7-51.9,115.7-115.7V30.6V-0.2H634z M589.6,677.3L333.7,421.4l-258.9,257c-26.2-14.4-43.9-42.2-43.9-74.1v-23.7
		l239.4-239.4v-308h60.9h64.1v308l236.1,236.1v27C631.4,635.4,614.6,662.6,589.6,677.3z M30.9,559.8V33.2h224.7v301.9L30.9,559.8z
		 M410,335.2V33.2h221.4v523.3L410,335.2z M285.4,688.9c-41.4,0-169.9,0-169.9,0c-9.1,0-17.9-1.5-26.2-4.1l244.4-244.3l241.7,243.5
		c-8.9,3.2-18.5,5-28.6,5c0,0-128.5,0-169.9,0c-10.2,0-18.8,7.4-28.6,15.9c-5.5,4.8-14.5,20-16.7,23.7c-2.6-4.4-11.2-18.6-16.5-23.3
		c-8-7-15.2-13.2-23.1-15.3C289.9,689.3,287.7,688.9,285.4,688.9z"/>
	<path class="st0" d="M345.8,644.6c4.6,2.1,9.1,5.3,14.2,5.3c0.2,0,0.4,0,0.5,0c0.7,0,1.2-0.9,0.6-1.5c-2.7-2.6-3.3-6.2-1.9-9.6
		c1.4-3.1,14.4-2.6,17.9-2.2c4.6,0.5,8.6,1.2,12.8,3.3c4.5,2.2,8.4,4.6,13.5,5.3c0,0,0.1,0,0.1,0c0.8,0-5.1-5.8-6.4-8.7
		c-2-4.5,1.6-6.4,5.4-7.7c2.7-0.9,5.7-1.4,8.6-1.4c2.4,0,4.7,0.3,6.9,1.1c3.4,1.2,6.4,3.3,9.7,4.6c5,2,10.2,2.6,15.5,2.7
		c0,0,0,0,0,0c0.6,0,1-0.6,0.8-1.1c-1-3.7-2.5-7.2-3.2-10.9c-1-5.3,1.1-9.6,4-13.9c3.8-5.6,8.5-10.5,11.9-16.4
		c0.3-0.5,0-1.3-0.7-1.3c0,0,0,0-0.1,0c-6.1,0.5-12.5,0.8-18.2,3.3c-6.4,2.8-10.6,8.5-16.4,12.2c-4.4,2.8-8.4,5.2-13.7,5.8
		c-1.5,0.2-3.1,0.3-4.7,0.3c-3.7,0-7.2-0.8-8.8-4.6c-1.1-2.6-1.5-5.2-2.9-7.7c-1.6-2.8-3.6-5.4-5.6-7.9c-0.1-0.2-0.4-0.3-0.6-0.3
		c-0.2,0-0.3,0-0.4,0.1c-3.5,2.4-5.8,5.7-9,8.5c-4.7,4.1-9.7,6.4-15.9,6.5c-0.6,0-1.2,0-1.9,0c-9.5,0-19.5-2.1-28.4-5.5
		c-3.4-1.3-5.9-3.9-9.7-3.9c-0.1,0-0.1,0-0.2,0c-3,0.1-5.6,1.3-8.1,1.3c-1.6,0-3.1-0.5-4.7-2c-1.8-1.7-3.1-2.3-4.2-2.3
		c-2,0-3.6,1.9-7.4,3.1c-0.6,0.2-1.1,0.2-1.5,0.2c-3.1,0-4.3-3.4-7.2-4.6c-1.2-0.5-2.5-0.6-3.8-0.6c-1.2,0-2.5,0.1-3.7,0.3
		c-7.6,0.8-15.1,3-22.5,5c-19.8,5.2-38.3,12.7-57,20.7c0,0,0,0-0.1,0c-0.4,0.2-0.5,0.6-0.4,0.9c0.1,0.3,0.2,0.5,0.6,0.6
		c16.7,4.8,33.5,9.3,49.8,15.3c8.7,3.2,16.8,4.8,24.8,9.9c4,2.6,8.8,5.2,13.7,5.2c0.6,0,1.3,0,1.9-0.1c0.5-0.1,0.7-0.7,0.6-1.1
		c-0.6-2-1.5-3.9-2.2-5.9c-0.2-0.5-1.3-2.9-1.1-3.5c0.4-1.2,1.8-1.4,3.2-1.4c0.9,0,1.8,0.1,2.4,0.1c0,0,0,0,0,0c1.8,0,3.6,0,5.5,0
		c7,0,14.1,0.2,21.1,0.5C327.7,641.4,337.9,641,345.8,644.6z"/>
</g>
</svg>
