<?xml version="1.0" encoding="utf-8"?>
<!-- Generator: Adobe Illustrator 23.0.1, SVG Export Plug-In . SVG Version: 6.00 Build 0)  -->
<svg version="1.1" id="Слой_1" xmlns="http://www.w3.org/2000/svg" xmlns:xlink="http://www.w3.org/1999/xlink" x="0px" y="0px"
	 viewBox="0 0 329.7 45.8" style="enable-background:new 0 0 329.7 45.8;" xml:space="preserve">
<style type="text/css">
	.st0{fill:#A38469;}
</style>
<g>
	<g>
		<polygon class="st0" points="26.3,3.9 21.1,3.8 5.9,20.4 5.9,4 1.2,4 1.2,40.9 5.9,40.9 5.9,27.2 9.6,23 22.3,40.9 27.8,40.9 
			13,19.2 		"/>
		<polygon class="st0" points="33.2,40.9 52.4,40.9 52.4,36.6 37.9,36.6 37.9,22.4 50.2,22.4 50.2,18.1 37.9,18.1 37.9,8.3 
			52.4,8.3 52.4,4 33.2,4 		"/>
		<path class="st0" d="M74.7,24.8c3.6-1,8-3.6,8-10.4c0-4.1-1.4-5.7-3-7.3C77,4.5,73.9,4,71.7,4c-0.1,0-10.4,0-10.4,0H61v36.9h4.7
			V25.3h2.8l11.2,15.6H85l-10.8-16L74.7,24.8z M65.8,8.4h0.3c0,0,4.9-0.1,7.2,0.4c2.8,0.6,4.3,2.1,4.3,6c0,5.1-4.4,5.7-5.5,5.9h-6.2
			V8.4H65.8z"/>
		<polygon class="st0" points="118.2,8.1 128.7,8.1 128.6,40.9 133.4,40.9 133.4,8.1 143.9,8.1 143.9,3.7 118.2,3.7 		"/>
		<polygon class="st0" points="150.3,40.9 155.3,40.9 155.3,3.7 150.3,3.7 		"/>
		<polygon class="st0" points="188.3,29.5 165.5,4 164.5,4 164.6,40.9 169.3,40.9 169.3,15.1 192.1,40.9 193.2,40.9 193.2,4 
			188.3,4 		"/>
		<path class="st0" d="M112.1,31.1L112.1,31.1l4.3,9.9h5L104.7,3.5h-0.2L88,41h5.2l4.2-9.9H112.1z M99.3,26.8l5.5-13.3l5.6,13.5
			H99.2L99.3,26.8z"/>
		<polygon class="st0" points="247.7,3.3 247.1,3.3 236.9,29.3 226.8,3.5 226.7,3.3 226.1,3.3 214.5,40.7 220,40.8 226.8,16.4 
			236.6,40.5 236.7,40.7 237.2,40.7 247,16.4 253.8,40.9 259.4,40.9 247.8,3.5 		"/>
		<polygon class="st0" points="328.6,0.4 323.1,0.4 313.8,16.6 306.3,3.4 306.3,3.3 300.8,3.3 311.1,21.3 297.6,44.9 303,44.9 
			313.8,26 322.4,40.9 327.8,40.9 316.6,21.3 328.3,0.8 		"/>
	</g>
</g>
<path class="st0" d="M112.1,31.1L112.1,31.1l4.3,9.9h5L104.7,3.5h-0.2L88,41h5.2l4.2-9.9H112.1z M99.3,26.8l5.5-13.3l5.6,13.5H99.2
	L99.3,26.8z"/>
<path class="st0" d="M287.2,31.1L287.2,31.1l4.3,9.9h5L279.8,3.5h-0.2L263.1,41h5.2l4.2-9.9H287.2z M274.3,26.8l5.5-13.3l5.6,13.5
	h-11.1V26.8z"/>
</svg>
