<?xml version="1.0" encoding="utf-8"?>
<!-- Generator: Adobe Illustrator 22.1.0, SVG Export Plug-In . SVG Version: 6.00 Build 0)  -->
<svg version="1.1" id="Слой_1" xmlns="http://www.w3.org/2000/svg" xmlns:xlink="http://www.w3.org/1999/xlink" x="0px" y="0px"
	 viewBox="0 0 451.3 218.4" style="enable-background:new 0 0 451.3 218.4;" xml:space="preserve">
<style type="text/css">
	.st0{fill:#A38469;}
</style>
<g>
	<g>
		<polygon class="st0" points="87.1,86.8 81.9,86.7 66.7,103.3 66.7,86.9 62,86.9 62,123.8 66.7,123.8 66.7,110.1 70.4,105.9 
			83.1,123.8 88.6,123.8 73.8,102.1 		"/>
		<polygon class="st0" points="94,123.8 113.2,123.8 113.2,119.5 98.7,119.5 98.7,105.3 111,105.3 111,101 98.7,101 98.7,91.2 
			113.2,91.2 113.2,86.9 94,86.9 		"/>
		<path class="st0" d="M135.5,107.7c3.6-1,8-3.6,8-10.4c0-4.1-1.4-5.7-3-7.3c-2.7-2.6-5.8-3.1-8-3.1c-0.1,0-10.4,0-10.4,0l-0.3,0
			l0,36.9h4.7l0-15.6h2.8l11.2,15.6h5.3l-10.8-16L135.5,107.7z M126.6,91.3l0.3,0c0,0,4.9-0.1,7.2,0.4c2.8,0.6,4.3,2.1,4.3,6
			c0,5.1-4.4,5.7-5.5,5.9h-6.2V91.3z"/>
		<polygon class="st0" points="179,91 189.5,91 189.4,123.8 194.2,123.8 194.2,91 204.7,91 204.7,86.6 179,86.6 		"/>
		<polygon class="st0" points="211.1,123.8 216.1,123.8 216.1,86.6 211.1,86.6 		"/>
		<polygon class="st0" points="249.1,112.4 226.3,86.9 225.3,86.9 225.4,123.8 230.1,123.8 230.1,98 252.9,123.8 254,123.8 
			254,86.9 249.1,86.9 		"/>
		<path class="st0" d="M172.9,114L172.9,114l4.3,9.9h5l-16.7-37.5h-0.2l-16.5,37.5h5.2l4.2-9.9H172.9z M160.1,109.7l5.5-13.3
			l5.6,13.5H160L160.1,109.7z"/>
		<polygon class="st0" points="308.5,86.2 307.9,86.2 297.7,112.2 287.6,86.4 287.5,86.2 286.9,86.2 275.3,123.6 280.8,123.7 
			287.6,99.3 297.4,123.4 297.5,123.6 298,123.6 307.8,99.3 314.6,123.8 320.2,123.8 308.6,86.4 		"/>
		<polygon class="st0" points="389.4,83.3 383.9,83.3 374.6,99.5 367.1,86.3 367.1,86.2 361.6,86.2 371.9,104.2 358.4,127.8 
			363.8,127.8 374.6,108.9 383.2,123.8 388.6,123.8 377.4,104.2 389.1,83.7 		"/>
	</g>
</g>
<path class="st0" d="M172.9,114L172.9,114l4.3,9.9h5l-16.7-37.5h-0.2l-16.5,37.5h5.2l4.2-9.9H172.9z M160.1,109.7l5.5-13.3l5.6,13.5
	H160L160.1,109.7z"/>
<path class="st0" d="M348,114L348,114l4.3,9.9h5l-16.7-37.5h-0.2l-16.5,37.5h5.2l4.2-9.9H348z M335.1,109.7l5.5-13.3l5.6,13.5h-11.1
	L335.1,109.7z"/>
</svg>
