<?xml version="1.0" encoding="utf-8"?>
<!-- Generator: Adobe Illustrator 22.1.0, SVG Export Plug-In . SVG Version: 6.00 Build 0)  -->
<svg version="1.1" id="Слой_13" xmlns="http://www.w3.org/2000/svg" xmlns:xlink="http://www.w3.org/1999/xlink" x="0px"
	 y="0px" viewBox="0 0 664.8 787.3" style="enable-background:new 0 0 664.8 787.3;" xml:space="preserve">
<style type="text/css">
	.st0{fill:#b29477;}
</style>
<path class="st0" d="M634.8,29.9v575.2c0,47-38.1,85.2-85.2,85.2c0,0-129.4,0-171.2,0c-10.3,0-18.9,7.4-28.8,16
	c-6.3,5.5-17.3,24.7-17.3,24.7s-11-19.2-17.3-24.7c-9.9-8.6-18.5-16-28.8-16c-41.7,0-171.2,0-171.2,0c-47,0-85.2-38.1-85.2-85.2
	V29.9h302.4H634.8 M664.7,0h-29.9H332.4H30H0.1v29.9v575.2c0,30.7,12,59.6,33.7,81.4c21.7,21.7,50.6,33.7,81.4,33.7h169.5
	c2.5,1.4,7.2,5.5,10.3,8.3c2.2,2.5,7.6,10.6,11.5,17.4l26,40.9l25.9-40.9c3.9-6.8,9.3-14.9,11.5-17.4c3.1-2.7,7.8-6.8,10.3-8.3
	h169.5c30.7,0,59.6-12,81.4-33.7s33.7-50.6,33.7-81.4V29.9V0L664.7,0z"/>
<g>
	<g>
		<path class="st0" d="M128.7,558.3c0.2-3,3.9-7.5,1.7-7.7l-5.1-0.4c-19.8-2.1-35.1,7.3-53.8,24.7c-4.6,4.2-7.9,16.2-3.3,11.9
			c17.5-16.2,37.3-25.1,55.8-23.1C126.7,563.9,128.5,561.8,128.7,558.3z"/>
	</g>
	<g>
		<path class="st0" d="M577,564.8c-3.2-9.3-10.9-14.9-15.7-23c-3.9-6.5-4.8-15.7-9.9-21.5c-3.2-3.6-6-4.7-10-6.8
			c-2.4-1.3-6.8,1.9-8.1,1c-12.3-8.8-4.9-28.6-24.7-29.2c-10.5-0.3-18.4,9-25,15.9c5.9,2.3,5.7,7.2,2.6,12.8
			c4.4,0.5,9.1-1.5,12.8,0.2c3.2,1.5,12.2,13.1,7.2,16.9c-9.8,2.4-17.7-18.1-26.9-10.6c-11.7,9.6,3.1,26,9.5,32.7
			c7.7,8.1,23.2,19.2,21.4,31.8c-3.1,21.9-37.4,16.2-46.9,3.6c-6.9-9.1-2.3-20.1-5.7-31.2c-3.8-12.7-11.9-19.1-24.1-21.9
			c-15.5-3.5-31.8-0.8-47.5-1.6c-21.2-1.1-42.1-7.2-63.1-8.8c-7.4-0.6-16.7-0.7-18.1,8.9c-1.9,12.1,14.6,14.4,21,19.3
			c-5.7-0.4-9.9,1.6-14.9,1.3c-12.5-0.7-24-2.5-36.3-3.5c-15.3-1.2-35.6,8.6-50.5,13c-8.5,2.5-11,2.9-20.5,1
			c-3.9-0.8-23.1-7.9-26.6-7.3c-6,1.2-3.7,6.2-7.5,14.1c9.9,0.6,27.6,5.9,37.5,7.3c-11.3,17.9-19.4,35.1-6,55.4
			c14.6,22.2,41.1,26,62.6,13c16.7-10.2,22.8-27,17.9-45.3c3.7,0.8,7.4,3.4,10.3,5.8c13.5-18.7-45.8-15.4-55.6-1.9
			c-6.7,9.3-2.5,13.1,5.8,10.5c3.8-1.2,9.5-7.4,14.4-9.2c4.9-1.8,9.9-2.5,14.9-4c9.6,35.1-33.1,51.2-55.9,30.6
			c-21.1-19.2-5.5-52.2,17-61.7c6.6-2.8,12.2-1,18-2.6c7.5-2.1,11-7.3,19.9-7.4c5.5,0,10.1,2.9,15.4,3.1c10.1,0.4,21.3,0.9,31.1,0.7
			c8.7-0.2,11.6-3.9,19,3.3c8.1,7.9,1.6,32,0.9,39.4c-0.2,2.5,16.3,6,19,8.4c3,1.2,33.8,32.2,35.6,33.5c0.5,0.4,1.2,0.6,1.9,0.9
			c1.5-2.3,0.5-3.4,2.7-5.2c0-0.6,0.1-1.2,0.2-1.8c-1.4-1.7-29.4-35.9-30.9-37.5c-2.5-2.6-15.2-1.4-17-3.7
			c-1.1-1.4,4.2-25.2,2.8-27.1c-12.4-15.8-11.4-32.4-33.4-40.4c24.3,3,47.3,8.9,72,8.7c23.8-0.2,53.6-7.2,55.9,24.8
			c1.8,24.2,6,33.1,29.7,39c22,5.5,33-4.9,43.6-22.9l-0.2-2.8c-1.5-19.1-15.3-26.3-25.9-39.6c-6.9-8.7-10-15.7,1.2-11.5
			c6.7,2.5,14.3,15.2,21.7,6.2c6.1-7.5-4.9-20.8-8.9-26.5c-8.1-11.9-3.4-20.2,7.9-8.3c6.7,7.1,7.7,18.3,17.2,21.1
			c5.7,1.7,6.7-3.3,12.8,2.3c4.4,4.1,3.8,12.1,6.1,17.4c2.9,6.6,15.9,21.3,15.8,26.2c-0.3,20.9-33.9,3.5-33.4,2.1
			c-1.2,3.2,4.3,6.6,6,8.1c7.6,6.9,12.9,5.6,12.9,16.5c0,9.3-10.8,18.5-16.2,28.4c0.4,0,0.8,0.1,1.2,0.1c1.6,0.1,3.2,0.1,4.9,0.1
			c2.8,0,5.7-0.2,8.5-0.5c4.7-6.9,9.3-14.1,10.7-19.4c2-7.7,1.3-11.8,6.7-17c2.5-2.4,7.4-4,10.4-5.6
			C575.6,579.9,579.6,572.3,577,564.8z"/>
	</g>
	<g>
		<g>
			<path class="st0" d="M578.1,417.1L578.1,417.1c-1.9-5.5-2.4-10.5-2.8-15.2c-0.5-5-13.9-23-23.7-36.2c-5.1-6.8-9.5-12.7-11.1-15.5
				c-0.7-1.2-0.9-2.1-1.1-3.1c-0.1-0.6-0.2-1.2-0.5-1.9c-1.3-3.9-4.1-8.5-9.6-8.5c-0.8,0-1.7,0.1-2.7,0.3c-3.5,0.7-7,4.7-10.7,8.8
				c-3.7,4.1-13.6,7.6-21.8,9.3c-2.7,1.4-5.6,2.6-8.5,3.5c-1.4,0.9-2.9,1.7-4.4,2.4c-3.3,0.9-6.7,1.1-9.8,0.3
				c-10.8-3-10.4-19-13.7-27.4c-2.8-7.2-8.5-13.6-13.1-19.7c-4.6-6.1-9.3-12.3-13.5-18.7c-9.1-13.8-5.9-29.6-5.7-45.2
				c0-2.1,1-3.6,2.4-4.4c0-0.1,0-0.2,0-0.3c-2.4-0.5-4.5-0.9-6-1.5c-7.8-3.2-21.4-10-25.6-20.5c-2.3-5.9-2.7-8-1.7-9.4
				c0.2-0.3,0.5-0.5,0.7-0.7c0.2,0.3,0.4,0.5,0.5,0.8c0.2-0.1,0.5-0.2,0.8-0.2c1.2,0,2.8,1.3,6.7,5c1.3,1.3,2.5,2.5,3.7,3.6
				c3.7,3.6,6.6,6.5,10.6,9c2.1,1.1,4.1,2.1,6,3c1.2,0.5,2.4,0.9,3.8,1.4c4.8,1.5,10,2.5,14.9,3.5c6,1.2,12.3,2.3,18.1,4.6
				c1.6,0.6,4.1,2.3,7.2,4.3c5.4,3.6,12.8,8.5,16.8,8.5c0.2,0,0.4,0,0.6,0c-5.1-4.1-7.2-7-6.8-9.1c0.2-0.8,0.7-1.8,2.5-2.3
				c0.4-0.1,0.9-0.2,1.3-0.2c2.6,0,4.4,2.4,5.9,4.5c1.2,1.6,2.5,3.3,3.8,3.5c0.2,0,0.4,0,0.6,0c1.8,0,3.1-0.8,4.1-2.4
				c2.7-4.4,1.6-13.2-0.4-16.9c-1.7-3.2-6-6.9-10.2-10.5c-3.4-2.9-6.8-5.9-9-8.7c-3-3.9-5.3-9.3-7.5-14.4
				c-2.8-6.4-5.7-13.1-9.8-16.6l-1.1-0.9c0,0-0.1-2.7,0.6-3.3c1.1-0.8,4.7,1.3,5.5,0.2c0.7-1-1.2-2-1.8-3c-4-6.7-6.4-10.7-16.7-11.1
				c-0.4,0-0.8,0-1.2,0c-2.1,0-3.4,0.2-4.7,0.3c-0.9,0.1-1.7,0.2-2.5,0.2c-1.8,0-3.5-0.4-6.1-1.5c-0.2-0.1-0.4-0.2-2-1.5
				c-7-5.6-11.4-8.6-13-9c-0.2,2,0.2,2.9,0.5,3.1c0.5,0.4,0.6,0.9,0.5,1.3l-0.2,0.8l-0.9,0l-0.1,0c0,0-0.1,0-0.1,0
				c-0.4,0-1.4,0.1-3.3,0.5c-0.2,0-0.4,0.1-0.7,0.1c-1,0-2.7-0.4-4.6-0.9c-2.3-0.6-4.9-1.2-6.6-1.2c-0.9,0-1.3,0.2-1.3,0.3
				c-0.5,1,1.4,3,3,4.6c1.5,1.5,3.1,3.1,3.6,4.7l0.4,1.1l-1.1,0.3c-5.9,1.8-13.7,3.5-20.7,4.7c-2.9,1.6-6.1,2.8-8.9,4.6
				c-0.2,0.1-0.4,0.3-0.6,0.4c-1,0.8-2,1.6-3,2.3c-4.8,3.3-9.8,6.5-13.9,10.7c-0.4,0.4-2,2.8-4,4.9c-1.5,2.4-3.2,5.2-4.9,8.1
				c-3.6,6-7.6,12.7-11,17.9c-0.1,0.6-0.2,1.3-0.2,1.9c0,0.2,0,0.4-0.1,0.5c-1.2,2.6-0.8,4.8-0.6,5.5c0.1,0.3,0.2,0.5,0.3,0.7
				c0,0.5,0,1-0.1,1.5c0.1,0.1,0.3,0.2,0.4,0.2c1.2,0,2.3,0.1,2.9,1c0.8,1.2,0.4,2.8-1.6,8.5c-1.3,3.7-2.9,7.2-4.5,10.6
				c-3.1,6.7-6,13.1-6.9,21.2c-0.4,3.1-4.9,28.5-4.9,28.4c0.1,0.6,0.1,1.2,0.2,1.9l-1.8-2.5l0-0.2c-4.2-21.3-1.1-43.3,8.4-60.6
				c-10.2-7.6-2.9-21.9-1.3-24.8l0-0.1l0.2-0.2c0.1-0.1,0.1-0.2,0.1-0.3l0-0.3l0.1-0.2c2.4-4.5,6.3-13.4,5.7-18
				c-0.3-1.8-1.5-2.9-2.9-4.1c-0.4-0.3-0.8-0.6-1.1-1c-3.4-3.2-6.2-6.9-8.7-11.5l-0.2-0.4l0.1-0.4c0.5-1.9,1.3-3.9,2.1-5.8
				c-0.4,0.3-0.8,0.6-1.2,0.9c-2.5,1.9-4,2.2-7,3.2c-1.9,1-3.8,1.5-5.7,1.4c-0.9-0.1-1.8-0.2-2.6-0.4l-0.3-0.1
				c-2.7-0.8-5.4-2.7-8-5.6c-3-3.3-5.3-6.8-7.1-10.5l-0.6-0.9c-0.7-2.3-1.3-3-1.7-5.4c-0.6-4.4-0.2-7.4,0.6-10.4
				c0.4-2.6,5-25.3,5.5-27.8c0-0.1,0-0.2,0-0.4c1.6-0.4,3.2-0.8,4.8-1.2c-2.8,9.4-5.7,29.4-0.5,42.4c5.2,13.1,10.4,14.2,17.3,12.3
				c10.6-2.8,24-24.1,22.5-40.8c-0.4-3.9,1.4-8-0.7-14.4c-0.1,0-0.2-0.1-0.2-0.1c-1.1-5.1-1.9-10.1-4.6-16c-0.5-1.1-3.8-7.5-4.5-8.6
				c-2-3.4-5.4-4.1-10.1-4.3c-0.8,0-1.6,0-2.4,0c-1-1.9-2.8-4.7-5.7-8.8c-3.6-5-9.1-8.5-16.3-8.3c-8.4,0.2-15.7,4.3-23.4,6.5
				c-9.3,2.7-19.1,4-28.9,2.7c-2.7-0.3-5.9,1.9-3.9,4.2c4.1,4.7,8.4,9.4,13.6,13.4c-5,1-10.2,1.5-15.5,1.5c-0.1,0-0.2,0-0.3,0
				c-3.6-0.8-7.4,2.9-4,5.3c10.8,7.8,24.8,13.2,38.8,13.3c2.8-4.6,4.5-10,7.7-14.5c3.3-4.6,7.6-9.1,13.5-11.1
				c4-1.4,8.4-1.5,12.7-0.7c-2.1,1.4-4,3.1-5.6,5.2c-2.6,3.4-4.7,7.4-6.7,11.3c-0.4,0.8-4.7,10.4-5.7,13.3v0
				c-0.4,1.1-2.1,18.2-2.7,20.6c-0.5,2-1,3.7-1.2,4.4c-0.3,0.9-0.6,1.9-0.9,3.2c-0.1,0.8-0.1,1.6-0.1,2.5
				c-0.3,6.2-1.9,13.6-7.6,16.6l-5-1.8l3.1,0.8c-7.6-2.2-13.6-3.1-23.7-4c-8.9-0.8-15.9-3.1-22.9,2.5l-0.3,0.3l-0.4-0.1
				c-0.6-0.1-0.7-0.4-2.5-3.5c-1.2-2.1-8.6-12.2-9.4-12.7c-0.9-0.3-12.2,2.2-13,3.5c-0.1,0.1,4.7,6.3,5.3,7.1c0.6,0.9,2,2.8,2.8,4.1
				c0.4,0.6,0.7,1.1,0.8,1.2c0.3,0.4,225.5,314.6,227.1,317.5c1.2,2.3-0.9,3.8-2.3,4.8c-0.5,0.4-3,1.6-3,1.9
				c1.7,2.4,30.2,21.7,34,22.3c-0.1-3.6-4.7-29.6-5.8-36.2c-0.3-2-1.5-2.1-1.7-2.1c-0.4-0.1-2,1.3-2.6,1.9c-1,0.9-2.2,2.1-3.9,1.9
				c-1.6-0.2-3.6,0.3-5.5-2.2c-5.8-7.8-22.2-34.1-29-43.4l-3.3-4.5l4.8,3.2c0.1,0.1,0.2,0.1,0.3,0.2c5,3.1,12.2,5.5,19.2,6.4l0.1,0
				c1.4,0.4,3,0.6,5.1,0.6c10.2,0.2,21.3-5.1,32.1-10.1c20.3-9.5,41.2-19.4,55.2,7.9c1.5,2.9,1.2,5.4,1,7.5c-0.2,1.8-0.4,3.3,0.4,5
				c1.1,2.2,2.9,3.9,4.8,5.7c2.1,2,4.3,4,5.4,6.8c2.1,5.3,0.7,10.1-0.6,14.4c-0.6,2.1-1.2,4.1-1.4,6.1c0.3,0.3,0.6,0.6,0.9,1
				c4.4,6.6,12,9.8,19.7,12.1c0,0,0,0,0-0.1c1,0.4,1.7,0.7,2.2,0.7c2.2-0.1,3.6-0.8,4.4-2.2c2.5-4.5-2.1-15-5-19.4
				c-4.1-6.3-5.2-12.9-6.2-19.4c-1-6.3-2-12.2-5.5-17.8c-2.9-4.5-7-8.4-11.4-12.5c-5.2-4.9-10.5-9.9-13.6-16c-0.5-1.1-1-2.1-1.5-3
				c-5.4-11-5.6-11.4-20.9-10.9c-2.8,0.1-5,0-6.6-0.2l7.1-9.1c0-0.1,0.1-0.1,0.1-0.1l-0.1-0.5l0.3-0.3c1.3-1.4,2.6-3,3.7-4.4
				c6.4-7.7,12.7-11.3,19.8-11.3c2,0,3.4,1.1,4.8,2.3c0.5,0.4,1.1,0.9,1.7,1.3c3.1,2.1,10.4,14.1,14.4,21.1l0.1,0.1
				c0.3,0.5,0.8,1.3,1.4,2.3c2.7,4.3,5.1,8.3,5.6,10.3c0.4,1.6,0.8,2.8,1,3.7c0.9,2.9,0.9,3.3,0.1,6.2c-0.3,1-0.5,1.7-0.7,2.4
				c-0.3,0.8-0.5,1.5-0.8,2.5c0,0.1,0.1,0.1,0.1,0.2c2.5,4.8,7,8.1,12,10.5c2.7,2,5.9,3.2,8.5,3.2c1.7,0,2.9-0.5,3.7-1.5
				C581.3,429.3,580.9,424,578.1,417.1z M446.8,197.3c0.4-0.9,1.3-1.4,2.4-1.4l0.1,0c2.2,0.1,4.4,0.6,6.4,1.5
				c0.8,0.3,1.5,0.7,2.1,1.2c0,0,0.1,0,0.1,0.1c0.9,0.6,1.7,1.3,2.4,2c0.5,0.5,2,5.8,1.9,6.5c0,0.5-3.9,1.1-5.1,1.1
				c-0.3,0-0.6-0.1-0.9-0.2c-0.1,0-0.2-0.1-0.3-0.1c-1.6-0.1-3.1-0.8-4.3-1.7c-2.3-1.7-4.7-3.8-5.5-6.6
				C445.9,198.8,446.2,197.9,446.8,197.3z"/>
		</g>
	</g>
	<g>
		<path class="st0" d="M162.3,622.3c-11.8-11.2-11.8-22.1-9.7-33.7c-0.5-1.2-0.2-2.6,0.7-3.3c1.5-6.3,4.1-12.8,6.8-19.6
			c0.6-1.6,1.2-3.1,1.9-4.7c0.9-2.3,1.8-4.5,2.8-6.5c0-0.1,0.1-0.2,0.1-0.2c8.8-18.7,18.5-22.6,37.7-30.3l1.8-0.7
			c10-4,19.3-14.4,28.2-24.4c7.2-8.1,14-15.7,21.3-20.4c17.2-11.1,22-11.6,39.9-13.4c1-0.1,2.1-0.2,3.2-0.3
			c-0.6-0.6-1.1-1.1-1.5-1.5c-2.8-2.7-3.2-3.2-4.2-8.9c-1.2-6.3,1.3-13.1,3.9-20.3c1.8-5,3.7-10.2,4.6-15.8
			c0.6-3.8,0.6-8.1,0.7-12.6c0-5,0.1-10.6,0.9-16.6c0.7-4.9,1.7-7.7,2.4-9.6c0.5-1.5,0.7-2,0.5-2.3c-0.4-0.6-1.8-1.4-3.9-2.5h0
			c-5.2-2.8-13.3-3.4-21.1-4c-4.3-0.3-8.3-0.6-11.7-1.3c-13.1-2.6-24.6-11.1-30.1-15.3l-0.7-0.5c0,0-0.2-0.2-0.4-0.3
			c-0.5-0.4-0.6-0.5-0.8-0.7c-0.8-1.1-1.5-2.1-2.1-3.1c-0.7-1.1-1.3-2.2-2.2-3.2c-3.4-4.1-7.5-4-13-2.7
			c-10.6,2.7-20.3,8.8-27.2,17.4c-0.9,1.1-1.8,2.4-2.7,3.6l-0.7,1l-0.9-0.9c-2.4-2.5-3.7-5.6-5-8.6c-2.5-5.9-4.8-11.4-15.4-12.2
			c-27.1-2-40.5,18.3-49.2,36.3c-5,10.3-7.8,21.3-10.4,32c-2.6,10.2-5.2,20.7-9.8,30.6c-12,26.1-13.7,37.3-2.6,63.8
			c3.5-4.5,4.9-10.1,6.2-16c1.8-7.5,3.6-15.2,9.9-22.1c2.7-2.9,5.8-4.8,8.8-6.7c3.2-2,6.5-4,9.2-7.2c3.9-4.6,5.7-12.2,7.5-20.2
			c0.9-3.8,1.8-7.8,3-11.5c2.2-7.2,20.6-39.1,34.2-42.4c0.8-0.2,1.5-0.3,2.3-0.3c2.2,0,4.2,0.9,5.8,2.6l0.3,0.3l-0.1,0.5
			c-0.4,3.8-0.4,7.9,0.1,12l0.2,1.7l0,0.2c-1.1,4.8-2.6,9.9-4,14.5c-1.2,4.1-2.3,7.7-2.5,9.2c-1.7,13.2-0.1,26.3,2,40.7
			c0.2,1.1,0.3,2.1,0.5,3.2c1.6,11.1,3.2,21.6-2.9,32.5c-2.4,4.3-5.1,7.7-7.7,11c-4.1,5.1-15.2,8-17.3,15.8
			c-3.3,12.7-4.8,23.3-8.4,33.1c-1.5,4.1-4,8.1-6.5,12c-2.6,4.1-8.5,8.8-9.7,12.6c-1.9,6.3-0.3,8.3,2.6,12c1.3,1.6,2.7,3.5,4.1,6
			c2.3,4.1,4.3,10.8,4.8,16c0.2,2.4-0.1,4.9-0.5,7.4c-0.4,3-0.8,5.8-0.1,8.2c1.3,4.1,18.3,11.2,25.8,12.9c2.6,0.6,2.9,0.1,5.2-2.4
			c3.8-4.2-0.2-12.2-3.4-17.3C163.3,623.9,162.7,623,162.3,622.3z"/>
	</g>
	<g>
		<path class="st0" d="M114.7,298.4c0.2,0.5,1,1.7,2.5,1.6c42.3-3.8,71.5,3.3,104.4,25.1c0.4,0.3,1.4,0.7,2.2,1.1
			c-1-10.2,1.6-20.5,4.1-30.5c0.8-3.1,1.6-6.4,2.3-9.6c1-6,2-12.3,1.9-18.6c0-1.2,0.5-2.2,1.5-2.8c1.1-0.6,2.4-0.6,3.5,0
			c1,0.6,1.6,1.6,1.6,2.8c0,0.4,0,0.9,0,1.3l0,0.4c0.1,0.3,0.1,0.5,0.1,0.8c0,2.6-0.2,5.4-0.6,8.4c-0.5,4.7-1.3,9.6-2.1,14.2
			c-1.3,7.7-2.6,15.7-2.6,23.6c0,13.9,3,24.7,9,32c2.6,3.2,14.2,8.2,15.2,8.5c7,2.2,14.8,3.4,21.7,4.4c9.3,1.4,18.9,2.8,27.3,6.5
			c10.6,4.5,9.6,9.4,8.1,16.7c-0.3,1.3-0.6,2.8-0.8,4.4c-0.8,5-1.1,10.2-1.4,15.2c-0.2,3.5-0.4,7.2-0.8,10.8
			c-0.7,6.8-3.2,12.7-5.7,18.3c-1.9,4.5-3.7,8.7-4.7,13.3c-2.8,13.4,13.8,21.1,27.2,27.3c3.1,1.4,6,2.8,8.5,4.1
			c0.8,0.2,1.9,0.4,2.8,0.4c0.8,0,1.4-0.2,1.9-0.5c0.5-0.4,0.8-0.9,0.8-1.5c0.5-4.4-6.6-12.9-10.4-17.5c-1.7-2-2.8-3.4-3.4-4.4
			c-8-13.9-3.3-28.3,1.2-42.2c0.5-1.7,1.1-3.4,1.6-5.1c0.7-2.3,1.4-4.5,2.1-6.8l0-0.1c1.7-5.5,3.1-10.1,4.6-14.8l1-3l0.9,3
			c2.8,8.9,1.9,16.1,2,20.1c0.1,5-2.5,9.1-4.8,14.8c-2.6,6.4-2.1,14-1.1,19.8c0.8,4.7,3.9,9.4,6.9,14c0.9,1.3,1.7,2.6,2.5,3.9
			c2.1-0.4,4.2-0.8,6.5-1.3c5.5-2.2,11-4.8,16.3-7.3c6.9-3.3,13.9-6.6,21.2-9.2c3.8-1.4,2.3-1.4,6.2-2.1
			c0.6-0.5-142.5-195.6-149.3-205c-1.1-1.5-5.6-8-11.3-16.2c-11.5-16.5-27.6-42.6-31.8-48.2c-5.5,2-12.8,8.3-14.9,9.9l-0.3,0.2
			c-0.8,0.6-1.7,1.3-2.5,2c-1.6,1.3-3.3,2.7-5.1,3.8c-1.4,0.9-2.3,0.1-2.5-0.2c-1.1-1.2-0.7-3.8,0.4-5.3c0.7-1.2,1.3-2.6,1.8-4.3
			c0.3-0.8,0.5-1.6,0.7-2.5c0.3-1.2,0.7-2.5,1.1-3.8c0.5-1.4,1.1-2.7,1.8-3.9c0.6-1.1,1.1-2.1,1.5-3.2c0.4-1.1,0.8-2.2,1.1-3.2
			c1-3.2,2.1-6.5,4.7-9.1c3.5-3.6,8.6-4.5,12.7-4.9c0.2-0.1,5.1-1,5.3-1.1c0.3,0,0.7-0.1,1-0.2c0.2-0.7,0.3-1.4,0.5-2
			c1.1-4.8-2.4-8.9-6.1-12.6c-2.9-3-8-5.4-12.3-5.8l-0.3,0.1l-0.3,0c-1,0-2,0.2-2.9,0.6c-2.1-3.1-4.4-7-6.9-10.9
			c-5.3-8.5-10.7-20-14.5-20c0,0-4.8,3-4.8,3c-1.2,0-1.5,0.4-1.7,0.7c-1.2,2.4,1.2,10.5,19.6,35.8c-0.8,1.4-1.6,3.1-2.5,5
			c-0.3,0.8-0.6,1.6-1,2.5c-0.7,1.8-1.3,3.7-2.5,5.3l-0.1,0.1l-0.8,1c-5.2,6-10.6,12.2-15,18.9c-4.6,7.1-8.1,15-11.5,22.7l-0.8,1.9
			c-0.2,0.4,0,1.2,0.2,1.6l0.2,0l0.3,0.3c2.9,2.7,6.4,4.8,10.1,7c1.8,1.1,3.6,2.2,5.4,3.4c0.4,0.1,0.8,0.3,1.2,0.6
			c12.3,9.2,26.3,15.2,37.6,15.9c6.6,0.4,9.4,4.3,9.7,5.6c0.1,0.3,0,0.6-0.1,0.8c-0.6,1.9-4.6,3-5.7,3c-8,0.1-16.3-1.3-26.3-4.4
			c-3.7-1.2-7.5-2.5-10.8-4.9c-1.3-0.9-2.5-1.9-3.6-2.9c-0.4-0.4-0.9-0.7-1.3-1.1c-0.4,2.3-1,4.2-2,5.9c-0.9,1.6-1.9,3.1-2.9,4.6
			c-2,3-3.9,5.9-4.8,9.4c-1.1,4.3-1,8.7,0.6,14.6c1.4,5.2,1.6,9.6-1.9,13.9c-0.6,0.7-1.2,1.4-1.9,2.2l-0.1,0.1l-0.7,0.4
			c-1.1,0.6-2.2,1.1-3.1,1.7c-3.8,2.3-8.2,5.1-12.5,8.2c-7.2,5.3-12.7,10.9-16.9,17c-0.8,1.1-1.5,2.3-2.4,3.7
			C113.9,296.7,114.2,297.7,114.7,298.4L114.7,298.4z"/>
	</g>
</g>
</svg>
