<?xml version="1.0" encoding="utf-8"?>
<!-- Generator: Adobe Illustrator 22.1.0, SVG Export Plug-In . SVG Version: 6.00 Build 0)  -->
<svg version="1.1" id="Слой_13" xmlns="http://www.w3.org/2000/svg" xmlns:xlink="http://www.w3.org/1999/xlink" x="0px"
	 y="0px" viewBox="0 0 664.8 787.3" style="enable-background:new 0 0 664.8 787.3;" xml:space="preserve">
<style type="text/css">
	.st0{fill:#6D6D6D;}
</style>
<g>
	<path class="st0" d="M640.8,0H332.4H24H0v24v586.6c0,29.6,11.5,57.4,32.5,78.4c20.9,20.9,48.8,32.5,78.4,32.5h174.3
		c2.7,0.8,9.7,6.9,13.6,10.3c2.3,2.3,8.4,11.6,12.8,19.2l20.8,36.4l20.8-36.4c4.5-7.8,10.5-16.8,12.8-19.2
		c3.9-3.4,10.9-9.5,13.6-10.3H554c29.6,0,57.4-11.5,78.4-32.5c20.9-20.9,32.5-48.8,32.5-78.4V24V0H640.8z M635.7,582.5
		c-12,10.8-27.4,18-42.5,23c-18,6-37.1,9.3-56,10.1c-11.5,0.5-23,0.1-34.5,0.1c-11.5,0-23.1,0.8-34.6,0
		c-20.8-1.3-42.8-6.6-56.4-23.7c-6.8-8.6-12.9-17.8-18-27.5c-1.9-3.6-3.5-7.3-5.4-10.9c-0.4-0.8-0.9-1.6-1.4-2.4
		c0.2,0.3-0.7-1-1.2-1.8c-6.8-6.4-14.4-10.5-23.3-13.2c-3-0.9-6-1.6-9.1-2.3c-1.3-0.3-2.7-0.5-4-0.7c0.1,0-2.4-0.4-2.7-0.4
		c-4.1-0.5-8.3-0.9-12.5-1.1c-8.3,0.2-11.3,0.2-23,2.7c-0.1,0-0.2,0-0.4,0c-16.4,2.6-32.8,4.6-49.3,4.7c-15.9,0.2-30.7-2.7-44.8-7.6
		c-1.4-0.3-2.8-0.6-4.2-1c-7.6-2-15.9-4-22.7-8c0,0,0,0,0,0c-18.5-8.9-34.2-22.5-49.3-35.6c-6.5-5.6-24.2-23.5-31.4-27.1
		c-7.7-3.9-16.7-4.3-25.6-2.1c-11.4,2.8-22.4,7.8-31.8,14.7c-7.3,5.4-14.4,13.1-23.4,16.9V28H332h303.7V582.5z M28.3,504.6
		c1.7-0.9,3.4-1.8,5.1-2.6c9.7-5,19.7-10.2,29.1-15.9c3.1-1.8,6-4.2,9-6.5c7.3-5.9,14.3-11.4,22.5-9.6c8.6,1.8,15.4,8.5,21.9,15
		c1.1,1,2.1,2.1,3.1,3.1c10.2,9.8,21.8,19,34.5,27.5c2.2,1.5,4.5,3,6.8,4.5c19.1,12.9,40.7,27.4,63.9,30.3
		c33.7,4.2,66.9,0.8,100.9-3.3c1.4-0.2,2.8-0.4,4.2-0.6c11.5-1.5,23.3-3.1,32,3.9c7.8,6.2,14.2,17.1,19.8,26.7
		c1.2,2,2.3,3.9,3.4,5.8c11.4,18.6,25.9,36.8,54.9,43.2c33.6,7.5,67.7,6.8,90.4,5c23-1.9,65.3-7.6,91-25.2c3.2-1.7,14-6.6,14.2-6.7
		c0.5-3.8,0.7-3.5,0.7-7.3v13.9c0,6.8-0.8,13.5-2.3,19.8c-1.7,0.8-3.5,1.6-5.4,2.6c-9.4,4.7-18.7,8.8-27.4,11.9l-0.9,0.3
		c-13.9,5-28.3,10.2-42.7,13.1c-30.3,6.1-67.2-0.5-96.8-5.8c-34.7-6.2-74-13.3-107.1-30.5c-9.8-5.1-18.8-12.1-27.4-18.9
		c-11.4-8.9-23.3-18.2-37.3-23.4c-6.9-2.6-15.3-3.9-24.1-3.9c-16,0-33.1,4.5-44.4,14.1c-5.3-3.6-10.7-7.1-15.9-10.5
		c-12.3-8-25-16.3-36.7-25.5c-4.8-3.7-9.6-8.2-14.7-12.9c-10.2-9.4-20.7-19.1-32.3-24.3c-22.7-10.1-48.5,3.6-71.3,15.6
		c-7.2,3.8-14.2,7.5-20.7,10.3V504.6z M28.3,551.6c11.8-3.9,22.6-9.3,33.2-14.6c7.8-3.9,15.9-8,24.3-11.4
		c22.7-9.2,35.5,1.8,51.7,15.8c3,2.6,6,5.2,9.3,7.8c13.8,11,28.5,21,42.7,30.6c9,6.1,18.3,12.4,27.3,18.9
		c10.2,7.4,21,13.8,31.5,20.1c8.3,4.9,16.7,10,24.9,15.5c-29.7,7.1-62.3,12.2-84.8-4.4c-4.5-3.3-8.9-6.7-13.6-10.3
		c-25.3-19.5-53.7-41.4-87.4-41.4c-2.1,0-4.3,0.1-6.4,0.3c-10.7,0-21.1,2.3-31.3,4.4c-7,1.5-14.2,3-21.4,3.8V551.6z M28.3,599.6
		c8.3-0.8,16.7-2.4,24.9-3.9c16.9-3.2,34.3-6.6,50.6-2.5c26.8,6.8,52.9,26,70,40.9c18.2,15.9,40,21.7,68.5,18.4
		c0.9-0.1,2.3-0.2,4-0.4c24.2-2.3,36.6-4.7,41.2-8.4c21.2,12.9,42.3,24.9,65.8,31.6c7.4,2.1,14.9,3.1,22,4
		c9.6,1.3,18.7,2.5,27.9,6.1v0c0.4,0.1,9.8,3.8,14.3,5.5c-15.9,0-29.9,0-39.4,0c-10.3,0-19,7.4-28.9,16.1C343,712.8,332,732,332,732
		s-11-19.2-17.4-24.8c-9.9-8.7-18.6-16.1-28.9-16.1c-41.9,0-171.9,0-171.9,0c-47.2,0-85.5-38.3-85.5-85.5V599.6z M451.5,691.1
		c-7.7-2.4-21.8-8.4-26.4-10.5c-2.2-1-4.5-2.1-7-3.1c-14.5-5.9-29.3-9.2-43.7-12.2c-19.8-4.3-38.5-8.3-56.6-18.9
		c-7.3-4.3-15-8.6-22.4-12.8c-21.5-12.2-43.7-24.8-63.2-39.5c0.9-0.4,1.7-0.8,2.5-1.1c15.1-6.8,28.1-12.6,45.4-7.3
		c13.9,4.3,26,13.8,37.6,23c3.8,3,7.7,6.1,11.6,8.9c26.3,19.1,58,28,88.3,34.7c27.8,6.2,51.2,10.4,73.6,13.5
		c1.8,0.2,3.6,0.5,5.4,0.7c22,3,46.9,6.5,68-0.7c23.5-4.4,43.5-10.9,60.7-19.6c-14.4,26.8-42.8,45.1-75.4,45.1
		C550.1,691.1,499.7,691.1,451.5,691.1z"/>
	<path class="st0" d="M517.4,676.7C517.8,676.4,517.5,676.3,517.4,676.7L517.4,676.7z"/>
	<path class="st0" d="M211,340.2c-1.5-5.8-2.6-11.8-3.6-17.6c-0.6-3.3-1.2-6.7-1.9-10.1l-0.3-1.6c-5.3,6.5-10.4,11.3-15.7,14.9
		c-7.6,5.2-16.4,7.8-24.9,10.3l-0.6,0.2c-12.7,7-21.9,15.4-29.8,27.2c-0.5,0.7-1,1.5-1.5,2.2c-4.3,6.6-8.8,13.4-16.2,16.8
		c-1.3,0.6-2.6,1.2-3.9,1.7c-6.5,2.8-11.6,5-14.6,12.6c-2.1,5.3-3,13.5,1.4,19.5c4.1,5.7,10,4.3,16.1,2.8c1.2-0.3,2.4-0.6,3.7-0.9
		c9.1-1.9,13.7-3.8,19-10.6c2.3-2.9,4.3-6.1,6.3-9.2l1-1.6c0.7-2.5,1.5-4.8,2.6-7c1.7-3.4,8-14.6,18.6-17.6
		c7.2-2.1,15.5-1.2,22.8-0.5c1.5,0.2,3,0.3,4.5,0.4c1.6,0.1,3.1,0.3,4.7,0.4c5,0.5,10.2,0.9,15.3,1.2l2.1-0.1
		c3.6-0.1,7.3-0.3,11-0.3c-2.5-2.8-4.6-5.7-6.4-8.7C216.7,357.8,213.6,349.8,211,340.2z"/>
	<path class="st0" d="M329.1,253.8c-1.3-1.7-2.6-3.8-3.9-6.3c-1.5-1.8-3.2-3.5-4.7-5c-1.6-1.6-3.3-3.1-4.9-4.6c-2.7-2.5-5.5-5-8-7.9
		c-17.2-20-29-39-35.9-57.9c-4.1-4.7-6.4-8-1.2-15.5c3.4-4.9,4.7-9.2,3.7-12.3c-0.7-2.1-2.5-3.8-5.4-4.9c-6.3-2.4-15.2,0.1-20,1.4
		c-8.5,2.4-13.8,0.4-20-1.9c-2.3-0.8-4.6-1.7-7.3-2.5c-8.5-2.4-18.6-2.2-26.4,0.7c-3.8,1.4-7.3,3.9-10.6,6.3
		c-4.1,2.9-8.3,6-13.3,7.2c-2.2,0.6-4.9,0.4-7.8,0.2c-4.3-0.2-8.8-0.5-11.1,1.9c-2.9,3.1-0.7,14,0.3,18.7l0.2,1.1
		c3.2,15.5,13.7,16.3,27,15.7c0.1,0,9.5-0.4,11.7,3.7c0.8,1.5,0.5,3.3-0.9,5.3c-3.6,5.1-11.6,2.1-15.7-0.4c-0.5-0.3-1.1-0.7-1.7-1.1
		c-3-1.9-6.4-4.1-9.2-3.4c-1.4,0.3-2.6,1.4-3.6,3.1c-3.1,5.4,3,14.3,5.7,17.8c5.7,7.4,11.4,10.1,17.5,8.2c1.8-0.5,3.6-1.7,5.3-2.7
		c3.6-2.3,7.6-4.8,12.6-2c8.4,4.7,8.1,19.2,7.9,28.8c0,1.3,0,2.4,0,3.4c0,2.5,0,5,0.1,7.4c0,4.2,0.1,8.6,0,13c0,2.4,0,4.9,0,7.5
		c0,1.1,0,2.2,0,3.3c0.5,0.7,0.7,1.6,0.8,2.5c0,3.2,0.3,6.7,0.9,10.6c0.7,0.5,1.2,1.3,1.2,2.2c0.4,4.6,0.9,8.6,1.4,12.3l0.6,3
		c0.6,3.2,1.2,6.4,1.8,9.5c0.3,1.9,0.7,3.8,1,5.8c1,3.8,2,7.4,3.2,10.8c2.5,6.9,5.6,13.1,9.4,18.5c3.2,4.5,7,8.1,11,11.9
		c1,0.9,3.7,3.6,4.1,3.9c13.6,2.9,21.9,18.6,24.8,25.3c6,13.6,6,28.8,5.3,42c-0.8,13.9-3.6,33.2-19.5,40.2c-1,0.5-2.2,0.9-3.4,1.3
		c-2.6,1.8-5.6,3.5-9.4,5.3c-0.5,0.3-1.2,0.5-1.8,0.8c-2.9,1.3-6.6,2.9-7.9,5.3c-1.3,2.4-0.4,7.1,1,10.4c3.1,7.2,13.6,6.1,21.3,5.3
		c1.4-0.2,2.8-0.3,4-0.4c3.2-0.2,6.7-0.1,10,0.1c6.5,0.3,13.3,0.5,19-1.8c0,0,0.1,0,0.1,0c4.5-3.3,6.4-10,7.6-14.4
		c2.1-7.5,3.5-14,4.1-19.9l0.2-1.4c0.1-1,0.2-1.9,0.3-2.9c-2.7-7.8,4.2-23.2,8.8-33.4c1.5-3.4,2.8-6.3,3.3-7.9
		c0.6-2,1.1-4.5,1.7-7.2c1.4-6.7,3-14.4,6.6-18.8c0.7-0.9,1.7-1.7,2.9-2.4c0.4-0.4,0.8-0.7,1.2-1c0.3-1,1-1.7,2-2
		c0.6-0.2,1.1-0.3,1.7-0.4c4.8-2.5,11-3.7,18.4-3.5c9.2,0.2,18.1,2.5,26.7,4.6c1.7,0.4,3.3,0.8,5,1.2l4,1c4.4,1.1,9,2.2,13.5,3.4
		c-0.1-0.1-0.1-0.1-0.2-0.2c-5.9-5.4-12.7-11.7-18.4-19l-0.2-0.1c-0.2-0.1-0.4-0.3-0.5-0.4c-0.8-0.5-1.3-1.3-1.3-2.2
		c-2.6-3.6-4.7-7.1-6.4-10.7c-1.3-2.8,0.2-5.4,2.4-6.5c1.9-0.9,4.4-0.6,5.6,2c5.7,11.9,15.1,21,24.2,29.4
		c6.5,5.9,13.3,12.1,20.8,16.9c2.9,1.4,5.4,2.8,7.9,4.3c0.7,0.3,1.4,0.6,2.1,0.9c0.9,0.4,1.7,1,2.2,1.8c5.1,2.8,12.1,7.1,16,12.9
		c4.1,4,7.3,9.1,10.3,14.1c0.9,1.5,1.9,3,2.8,4.5c8.3,12.7,16.1,22.9,24.5,32.2l1.9,2.1c14.1,15.4,31.8,34.6,25,57
		c-3.2,10.6-11.9,15.5-20,18.9c-0.6,0.2-1.2,0.5-1.8,0.7c-7.8,3.2-15.8,6.6-13,16c2.6,8.9,14.9,7.2,23.8,6c1.7-0.2,3.3-0.4,4.7-0.6
		c2.4-0.2,5-0.4,7.5-0.5c8.5-0.5,17.4-1,24.9-4.5c8.7-3.9,10.3-11.3,10.2-21.9c0-4.3-0.3-8.6-0.5-12.8c-0.5-8.8-1-17.8,0.2-26.8
		c1.8-13.7-1.6-20.7-7.3-32.1l-1.1-2.2c-0.2-0.4-0.4-0.8-0.6-1.2l-0.1-0.3c-5.1-6.2-8.3-13.3-9.3-20.5c-1.3-9.8,1.3-19.2,3.7-28.3
		c0.9-3.4,1.8-6.9,2.6-10.3c0.2-11.8,0-23.4-0.9-34.6c-0.2-2.4-0.5-4.8-0.7-7.1c-0.2-1.3-0.3-2.6-0.4-3.9c-1.6-3.8-3.9-6.4-6.7-8.1
		c-1.7-1-2.5-2.7-2.2-4.6c0.4-1.8,1.7-3.3,3.4-3.8c0.3-0.7,0.9-1.3,1.6-1.8c2.2-1.5,4.5-3.2,6.7-4.7c5.7-4.1,11.7-8.4,18-11.9
		c14.6-15.8,17.2-37.9,6.7-57.7c-15.1-28.7-47.3-46-79.8-60.3c-4.7-2.1-10-3.9-15.5-5.8c-13.9-4.8-28.3-9.7-37.1-19.6
		c-4.3-4.9-6-9.6-5-14c2-8.7,13.9-14.5,24-18.5c10.4-4.2,24-12.6,28.2-22.8c1.8-4.3,1.8-8.6-0.1-12.8c-1.2-2.9-3.3-4.6-5.8-4.9
		c-3.2-0.4-6.9,1.5-9.4,4.8c-1.8,2.4-3.1,4.9-4.3,7.3c-2.4,4.7-4.7,9.2-10.7,12.4c-5.5,2.9-11.2,4.3-16.7,5.6
		c-9.9,2.4-19.2,4.7-25.6,15c-6.9,11.2-6.2,24.3,2,35.1c13.6,18,36.1,26.1,57.9,33.8c5.7,2,11.1,4,16.3,6.1
		c43.3,17.4,65.6,39.4,66.2,65.3c0.2,7.9-3.3,17.3-11.4,19c-6.9,1.5-16.1-2.9-23.5-6.4c-2.1-1-4.2-2-5.9-2.7c-4-1.6-8-3.3-12-5
		c-16-6.6-32.6-13.5-49.5-18.4c-13.8-4-28.2-6.7-42.1-9.3c-6.1-1.1-12.4-2.3-18.5-3.6c-8.1-1.7-15.4-3.3-22.2-5.9
		c-3.2-0.4-6.3-1.6-9.4-3.7l-0.2-0.1c-8.9-2.1-18-4.2-24.8-11.3C327.7,258.2,327.6,255.6,329.1,253.8z M202.7,164.4
		c-6.4,0-9.8-5.1-9.8-10.1c0-5,3.4-10.1,9.8-10.1s9.8,5.1,9.8,10.1C212.4,159.3,209.1,164.4,202.7,164.4z"/>
	<path class="st0" d="M419.9,420l-0.3-0.2c-0.4-0.2-0.9-0.4-1.3-0.6c-1.9-0.9-3.9-1.8-6.2-2.6c-4.2-1.2-8.6-2.4-12.9-3.5
		c-5.8-1.6-11.9-3.2-17.7-5l-2-0.6c-1.8-0.4-3.6-0.9-5.4-1.4c-7.1-1.9-14.4-3.8-21.8-4.4c-1.5-0.1-3.3-0.3-5.3-0.3
		c3.9,4.2,3.9,10.3,4,15.7c0,1.8,0.1,3.6,0.2,5.2c0.4,3.8,1.9,8.2,3.4,12.3c3.2,8.9,6.5,18.1-0.3,25.1c-2.1,2.1-7.7,4.3-14.8,7
		c-11.6,4.4-27.5,10.5-30,18.4c-0.4,1-0.7,1.9-1,2.8c-2.2,6.6-1.9,10.8,1.4,14.2c4.4,4.6,9.6,5.6,16.4,6.1
		c5.6,0.3,10.8,0.1,16.1-1.5c4.8-1.4,14.6-6.5,18.2-8.1c8.7-3.9,17.7-7.9,25-13.6c6.4-4.9,6.5-10.3,6.6-17c0-2.2,0.1-4.5,0.3-6.9
		c1.9-18,17.3-34.4,34.2-37.2c-0.1-0.1-0.3-0.2-0.4-0.3C424.2,422.5,422.1,421.3,419.9,420z"/>
</g>
</svg>
